<svg width="19" height="18" viewBox="0 0 19 18" fill="none" xmlns="http://www.w3.org/2000/svg">
<path d="M7.6062 15.5031C7.46328 15.5031 7.32037 15.4506 7.20754 15.3381C6.98941 15.1206 6.98941 14.7606 7.20754 14.5431L12.1117 9.65313C12.4728 9.29313 12.4728 8.70813 12.1117 8.34812L7.20754 3.45813C6.98941 3.24063 6.98941 2.88063 7.20754 2.66313C7.42568 2.44563 7.78672 2.44563 8.00485 2.66313L12.9091 7.55312C13.2927 7.93562 13.5108 8.45313 13.5108 9.00063C13.5108 9.54813 13.3002 10.0656 12.9091 10.4481L8.00485 15.3381C7.89203 15.4431 7.74911 15.5031 7.6062 15.5031Z" fill="#4E6F88"/>
</svg>
