<svg width="17" height="21" viewBox="0 0 17 21" fill="none" xmlns="http://www.w3.org/2000/svg">
<path d="M5.75 4.6875C5.75 6.2408 7.0092 7.5 8.5625 7.5V9.375C5.97367 9.375 3.875 7.27633 3.875 4.6875H5.75ZM8.5625 7.5C10.1158 7.5 11.375 6.2408 11.375 4.6875H13.25C13.25 7.27633 11.1513 9.375 8.5625 9.375V7.5ZM11.375 4.6875C11.375 3.1342 10.1158 1.875 8.5625 1.875V0C11.1513 0 13.25 2.09867 13.25 4.6875H11.375ZM8.5625 1.875C7.0092 1.875 5.75 3.1342 5.75 4.6875H3.875C3.875 2.09867 5.97367 0 8.5625 0V1.875ZM12.3125 13.125H4.8125V11.25H12.3125V13.125ZM4.8125 18.75H12.3125V20.625H4.8125V18.75ZM12.3125 18.75C13.8658 18.75 15.125 17.4908 15.125 15.9375H17C17 18.5263 14.9013 20.625 12.3125 20.625V18.75ZM2 15.9375C2 17.4908 3.2592 18.75 4.8125 18.75V20.625C2.22367 20.625 0.125 18.5263 0.125 15.9375H2ZM4.8125 13.125C3.2592 13.125 2 14.3842 2 15.9375H0.125C0.125 13.3487 2.22367 11.25 4.8125 11.25V13.125ZM12.3125 11.25C14.9013 11.25 17 13.3487 17 15.9375H15.125C15.125 14.3842 13.8658 13.125 12.3125 13.125V11.25Z" fill="#4E6F88"/>
</svg>
