<svg width="11" height="20" viewBox="0 0 11 20" fill="none" xmlns="http://www.w3.org/2000/svg">
<path d="M0.872324 7.98582C1.06948 7.66909 1.43942 7.5 1.8125 7.5C3.3658 7.5 4.625 6.2408 4.625 4.6875C4.625 3.1342 3.3658 1.875 1.8125 1.875C1.43942 1.875 1.06948 1.70591 0.872324 1.38918C0.863605 1.37518 0.854832 1.3612 0.846004 1.34727C0.517752 0.829135 0.684069 0.0955007 1.29375 0.028379C1.46408 0.00962624 1.63717 0 1.8125 0C4.40133 0 6.5 2.09867 6.5 4.6875C6.5 7.27633 4.40133 9.375 1.8125 9.375C1.63717 9.375 1.46408 9.36537 1.29375 9.34662C0.684068 9.2795 0.517751 8.54587 0.846003 8.02773C0.85483 8.0138 0.863604 7.99983 0.872324 7.98582Z" fill="#4E6F88"/>
<path d="M4.67714 17.8961C4.81904 17.6593 5.06951 17.5 5.34552 17.5H5.5625C7.1158 17.5 8.375 16.2408 8.375 14.6875C8.375 13.1342 7.1158 11.875 5.5625 11.875H5.34552C5.06951 11.875 4.81904 11.7157 4.67714 11.4789C4.33076 10.901 4.70664 10 5.38039 10H5.5625C8.15133 10 10.25 12.0987 10.25 14.6875C10.25 17.2763 8.15133 19.375 5.5625 19.375H5.38039C4.70664 19.375 4.33076 18.474 4.67714 17.8961Z" fill="#4E6F88"/>
</svg>
