<svg width="22" height="22" viewBox="0 0 22 22" fill="none" xmlns="http://www.w3.org/2000/svg">
<g clip-path="url(#clip0_2824_14718)">
<path d="M21.2148 3.92773H10.2148V11.7849H21.2148V3.92773Z" stroke="#4E6F88" stroke-width="1.57143" stroke-linecap="round" stroke-linejoin="round"/>
<path d="M15.7148 3.92773V11.7849" stroke="#4E6F88" stroke-width="1.57143" stroke-linecap="round" stroke-linejoin="round"/>
<path d="M13.3574 0.785156L15.7146 3.92801L18.0717 0.785156" stroke="#4E6F88" stroke-width="1.57143" stroke-linecap="round" stroke-linejoin="round"/>
<path d="M0.786133 17.2852L4.62628 20.4854C5.1911 20.956 5.90305 21.2137 6.63829 21.2137H16.7623C17.4856 21.2137 18.0719 20.6274 18.0719 19.9043C18.0719 18.4578 16.8993 17.2852 15.4528 17.2852H8.41431" stroke="#4E6F88" stroke-width="1.57143" stroke-linecap="round" stroke-linejoin="round"/>
<path d="M5.50042 15.7137L6.67899 16.8923C7.32989 17.5432 8.38522 17.5432 9.03614 16.8923C9.68704 16.2414 9.68704 15.1861 9.03614 14.5352L7.20665 12.7057C6.61725 12.1163 5.81785 11.7852 4.98432 11.7852H0.786133" stroke="#4E6F88" stroke-width="1.57143" stroke-linecap="round" stroke-linejoin="round"/>
</g>
<defs>
<clipPath id="clip0_2824_14718">
<rect width="22" height="22" fill="white"/>
</clipPath>
</defs>
</svg>
