<svg width="24" height="21" viewBox="0 0 24 21" fill="none" xmlns="http://www.w3.org/2000/svg">
<path d="M5.75 4.6875C5.75 6.2408 7.0092 7.5 8.5625 7.5V9.375C5.97367 9.375 3.875 7.27633 3.875 4.6875H5.75ZM8.5625 7.5C10.1158 7.5 11.375 6.2408 11.375 4.6875H13.25C13.25 7.27633 11.1513 9.375 8.5625 9.375V7.5ZM11.375 4.6875C11.375 3.1342 10.1158 1.875 8.5625 1.875V0C11.1513 0 13.25 2.09867 13.25 4.6875H11.375ZM8.5625 1.875C7.0092 1.875 5.75 3.1342 5.75 4.6875H3.875C3.875 2.09867 5.97367 0 8.5625 0V1.875ZM12.3125 13.125H4.8125V11.25H12.3125V13.125ZM4.8125 18.75H12.3125V20.625H4.8125V18.75ZM12.3125 18.75C13.8658 18.75 15.125 17.4908 15.125 15.9375H17C17 18.5263 14.9013 20.625 12.3125 20.625V18.75ZM2 15.9375C2 17.4908 3.2592 18.75 4.8125 18.75V20.625C2.22367 20.625 0.125 18.5263 0.125 15.9375H2ZM4.8125 13.125C3.2592 13.125 2 14.3842 2 15.9375H0.125C0.125 13.3487 2.22367 11.25 4.8125 11.25V13.125ZM12.3125 11.25C14.9013 11.25 17 13.3487 17 15.9375H15.125C15.125 14.3842 13.8658 13.125 12.3125 13.125V11.25Z" fill="#4E6F88"/>
<path d="M13.8723 7.98582C14.0695 7.66909 14.4394 7.5 14.8125 7.5C16.3658 7.5 17.625 6.2408 17.625 4.6875C17.625 3.1342 16.3658 1.875 14.8125 1.875C14.4394 1.875 14.0695 1.70591 13.8723 1.38918C13.8636 1.37518 13.8548 1.3612 13.846 1.34727C13.5178 0.829135 13.6841 0.0955007 14.2937 0.028379C14.4641 0.00962624 14.6372 0 14.8125 0C17.4013 0 19.5 2.09867 19.5 4.6875C19.5 7.27633 17.4013 9.375 14.8125 9.375C14.6372 9.375 14.4641 9.36537 14.2937 9.34662C13.6841 9.2795 13.5178 8.54587 13.846 8.02773C13.8548 8.0138 13.8636 7.99983 13.8723 7.98582Z" fill="#4E6F88"/>
<path d="M17.6771 17.8961C17.819 17.6593 18.0695 17.5 18.3455 17.5H18.5625C20.1158 17.5 21.375 16.2408 21.375 14.6875C21.375 13.1342 20.1158 11.875 18.5625 11.875H18.3455C18.0695 11.875 17.819 11.7157 17.6771 11.4789C17.3308 10.901 17.7066 10 18.3804 10H18.5625C21.1513 10 23.25 12.0987 23.25 14.6875C23.25 17.2763 21.1513 19.375 18.5625 19.375H18.3804C17.7066 19.375 17.3308 18.474 17.6771 17.8961Z" fill="#4E6F88"/>
</svg>
