<svg width="19" height="22" viewBox="0 0 19 22" fill="none" xmlns="http://www.w3.org/2000/svg">
<path d="M11.607 0.785156H6.89272C6.02485 0.785156 5.32129 1.48871 5.32129 2.35658V3.1423C5.32129 4.01017 6.02485 4.71373 6.89272 4.71373H11.607C12.4749 4.71373 13.1784 4.01017 13.1784 3.1423V2.35658C13.1784 1.48871 12.4749 0.785156 11.607 0.785156Z" stroke="#4E6F88" stroke-width="1.57143" stroke-linecap="round" stroke-linejoin="round"/>
<path d="M13.5714 2.35742H15.9286C16.3453 2.35742 16.7451 2.52299 17.0397 2.81768C17.3344 3.11238 17.5 3.51208 17.5 3.92885V19.6431C17.5 20.0599 17.3344 20.4597 17.0397 20.7543C16.7451 21.0489 16.3453 21.2146 15.9286 21.2146H2.57143C2.15465 21.2146 1.75496 21.0489 1.46026 20.7543C1.16557 20.4597 1 20.0599 1 19.6431V3.92885C1 3.51208 1.16557 3.11238 1.46026 2.81768C1.75496 2.52299 2.15465 2.35742 2.57143 2.35742H4.92857" stroke="#4E6F88" stroke-width="1.57143" stroke-linecap="round" stroke-linejoin="round"/>
<path d="M6.10742 14.142L8.46456 15.7134L13.1789 9.42773" stroke="#4E6F88" stroke-width="1.57143" stroke-linecap="round" stroke-linejoin="round"/>
</svg>
