<svg width="24" height="22" viewBox="0 0 24 22" fill="none" xmlns="http://www.w3.org/2000/svg">
<path d="M5.11602 6.73591L5.67161 6.18032L5.11602 6.73591ZM3.09524 4.71512L2.53965 5.27071L3.09524 4.71512ZM11.4762 19.6437C11.0423 19.6437 10.6905 19.9955 10.6905 20.4294C10.6905 20.8633 11.0423 21.2151 11.4762 21.2151V19.6437ZM21.9996 18.2702L21.364 17.8084V17.8084L21.9996 18.2702ZM20.8408 19.429L20.379 18.7934L20.8408 19.429ZM20.8408 2.57265L21.3026 1.937L21.3026 1.937L20.8408 2.57265ZM21.9996 3.73149L21.364 4.19332V4.19332L21.9996 3.73149ZM4.20684 2.57265L3.74501 1.937V1.937L4.20684 2.57265ZM1.2619 11.0008C1.2619 11.4348 1.61368 11.7866 2.04762 11.7866C2.48156 11.7866 2.83333 11.4348 2.83333 11.0008H1.2619ZM3.04801 3.73149L2.41235 3.26965L2.41235 3.26965L3.04801 3.73149ZM1 17.5485C0.566062 17.5485 0.214286 17.9002 0.214286 18.3342C0.214286 18.7681 0.566062 19.1199 1 19.1199V17.5485ZM7.28571 19.1199C7.71965 19.1199 8.07143 18.7681 8.07143 18.3342C8.07143 17.9002 7.71965 17.5485 7.28571 17.5485V19.1199ZM1 14.4056C0.566062 14.4056 0.214286 14.7574 0.214286 15.1913C0.214286 15.6253 0.566062 15.977 1 15.977V14.4056ZM4.14286 15.977C4.5768 15.977 4.92857 15.6253 4.92857 15.1913C4.92857 14.7574 4.5768 14.4056 4.14286 14.4056V15.977ZM2.69822 4.31811L1.9904 3.97703L2.69822 4.31811ZM5.67161 6.18032L3.77792 4.28664L2.66675 5.39781L4.56044 7.29149L5.67161 6.18032ZM21.2697 4.28664L19.376 6.18032L20.4872 7.29149L22.3809 5.39781L21.2697 4.28664ZM4.56044 7.29149C6.29077 9.02182 7.64322 10.3766 8.83921 11.2891C10.0533 12.2155 11.1981 12.7597 12.5238 12.7597V11.1883C11.6798 11.1883 10.8667 10.8595 9.79241 10.0398C8.69994 9.2063 7.43335 7.94206 5.67161 6.18032L4.56044 7.29149ZM19.376 6.18032C17.6143 7.94206 16.3477 9.2063 15.2552 10.0398C14.1809 10.8595 13.3678 11.1883 12.5238 11.1883V12.7597C13.8495 12.7597 14.9943 12.2155 16.2084 11.2891C17.4044 10.3766 18.7569 9.02182 20.4872 7.29149L19.376 6.18032ZM5.67161 6.18032L3.65082 4.15954L2.53965 5.27071L4.56044 7.29149L5.67161 6.18032ZM21.3968 4.15954L19.376 6.18032L20.4872 7.29149L22.508 5.27071L21.3968 4.15954ZM11.4762 2.35798H13.5714V0.786551H11.4762V2.35798ZM13.5714 19.6437H11.4762V21.2151H13.5714V19.6437ZM22.2143 11.0008C22.2143 12.9825 22.2132 14.4056 22.0938 15.5076C21.976 16.595 21.7506 17.2762 21.364 17.8084L22.6353 18.732C23.249 17.8873 23.5238 16.8979 23.6561 15.6769C23.7868 14.4706 23.7857 12.9475 23.7857 11.0008H22.2143ZM13.5714 21.2151C15.5181 21.2151 17.0412 21.2162 18.2475 21.0855C19.4685 20.9532 20.4579 20.6784 21.3026 20.0647L20.379 18.7934C19.8468 19.18 19.1656 19.4054 18.0782 19.5232C16.9762 19.6426 15.5531 19.6437 13.5714 19.6437V21.2151ZM21.364 17.8084C21.0893 18.1863 20.7569 18.5187 20.379 18.7934L21.3026 20.0647C21.814 19.6931 22.2637 19.2434 22.6353 18.732L21.364 17.8084ZM13.5714 2.35798C15.5531 2.35798 16.9762 2.35906 18.0782 2.47846C19.1656 2.59626 19.8468 2.82165 20.379 3.20831L21.3026 1.937C20.4579 1.32327 19.4685 1.04846 18.2475 0.916171C17.0412 0.785473 15.5181 0.786551 13.5714 0.786551V2.35798ZM20.379 3.20831C20.7569 3.48293 21.0893 3.81533 21.364 4.19332L22.6353 3.26966C22.2637 2.75826 21.814 2.30854 21.3026 1.937L20.379 3.20831ZM11.4762 0.786551C9.52955 0.786551 8.00645 0.785473 6.80012 0.916171C5.57908 1.04846 4.58973 1.32327 3.74501 1.937L4.66867 3.20831C5.20087 2.82165 5.88205 2.59626 6.96938 2.47846C8.07142 2.35906 9.49454 2.35798 11.4762 2.35798V0.786551ZM3.74501 1.937C3.23362 2.30854 2.7839 2.75827 2.41235 3.26965L3.68366 4.19332C3.95828 3.81533 4.29069 3.48293 4.66867 3.20831L3.74501 1.937ZM1 19.1199H7.28571V17.5485H1V19.1199ZM1 15.977H4.14286V14.4056H1V15.977ZM2.83333 11.0008C2.83333 9.2878 2.83384 7.98886 2.91243 6.94869C2.99087 5.91039 3.1433 5.20446 3.40605 4.65918L1.9904 3.97703C1.60254 4.78195 1.42967 5.71566 1.34546 6.83031C1.26139 7.9431 1.2619 9.31043 1.2619 11.0008H2.83333ZM3.40605 4.65918C3.4865 4.49221 3.57832 4.33831 3.68366 4.19332L2.41235 3.26965C2.25038 3.49259 2.1106 3.72758 1.9904 3.97703L3.40605 4.65918ZM3.65082 4.15954L3.25381 3.76252L2.14264 4.87369L2.53965 5.27071L3.65082 4.15954ZM23.7857 11.0008C23.7857 9.31043 23.7862 7.9431 23.7022 6.83031C23.6179 5.71566 23.4451 4.78195 23.0572 3.97703L21.6416 4.65918C21.9043 5.20446 22.0568 5.91038 22.1352 6.94869C22.2138 7.98886 22.2143 9.2878 22.2143 11.0008H23.7857ZM23.0572 3.97703C22.937 3.72757 22.7972 3.49259 22.6353 3.26965L21.364 4.19332C21.4693 4.33831 21.5611 4.49221 21.6416 4.65918L23.0572 3.97703ZM22.508 5.27071L22.905 4.87369L21.7938 3.76252L21.3968 4.15954L22.508 5.27071Z" fill="#4E6F88"/>
</svg>
