<svg width="24" height="24" viewBox="0 0 24 24" fill="none" xmlns="http://www.w3.org/2000/svg">
<path d="M3.63491 22.1859L4.06578 21.4828L3.63491 22.1859ZM1.81995 20.3709L2.52306 19.9401L1.81995 20.3709ZM22.1899 20.3709L21.4868 19.9401L22.1899 20.3709ZM20.3749 22.1859L19.944 21.4828L20.3749 22.1859ZM20.3749 5.1145L19.944 5.81762L20.3749 5.1145ZM22.1899 6.92947L21.4868 7.36034L22.1899 6.92947ZM3.63491 5.1145L4.06578 5.81762L3.63491 5.1145ZM1.81995 6.92947L2.52306 7.36034L1.81995 6.92947ZM19.1262 1.60669L19.7213 1.03585V1.03585L19.1262 1.60669ZM3.03756 1.98529L3.53547 2.64264L3.03756 1.98529ZM1.9493 3.11985L2.62585 3.59133L1.9493 3.11985ZM19.7015 4.44768H20.5261L20.5261 4.4436L19.7015 4.44768ZM19.0018 13.7752C19.4572 13.7752 19.8264 13.406 19.8264 12.9505C19.8264 12.4951 19.4572 12.1259 19.0018 12.1259V13.7752ZM16.0031 12.1259C15.5477 12.1259 15.1785 12.4951 15.1785 12.9505C15.1785 13.406 15.5477 13.7752 16.0031 13.7752V12.1259ZM10.3557 5.12902H13.6542V3.47975H10.3557V5.12902ZM13.6542 22.1714H10.3557V23.8207H13.6542V22.1714ZM10.3557 22.1714C8.5401 22.1714 7.23635 22.1705 6.2194 22.0738C5.21472 21.9783 4.57543 21.7951 4.06578 21.4828L3.20404 22.889C4.01638 23.3868 4.93789 23.6087 6.06329 23.7157C7.17642 23.8215 8.57204 23.8207 10.3557 23.8207V22.1714ZM0.185198 13.6502C0.185198 15.4338 0.184328 16.8294 0.290165 17.9426C0.397169 19.068 0.619029 19.9895 1.11683 20.8018L2.52306 19.9401C2.21075 19.4304 2.02755 18.7911 1.93202 17.7865C1.83533 16.7695 1.83446 15.4658 1.83446 13.6502H0.185198ZM4.06578 21.4828C3.43702 21.0975 2.90837 20.5688 2.52306 19.9401L1.11683 20.8018C1.63813 21.6525 2.35336 22.3677 3.20404 22.889L4.06578 21.4828ZM13.6542 23.8207C15.4378 23.8207 16.8334 23.8215 17.9465 23.7157C19.0719 23.6087 19.9934 23.3868 20.8058 22.889L19.944 21.4828C19.4344 21.7951 18.7951 21.9783 17.7904 22.0738C16.7735 22.1705 15.4697 22.1714 13.6542 22.1714V23.8207ZM21.4868 19.9401C21.1015 20.5688 20.5728 21.0975 19.944 21.4828L20.8058 22.889C21.6565 22.3677 22.3717 21.6525 22.893 20.8018L21.4868 19.9401ZM19.944 5.81762C20.5728 6.20292 21.1015 6.73157 21.4868 7.36034L22.893 6.4986C22.3717 5.64792 21.6565 4.93269 20.8058 4.41139L19.944 5.81762ZM10.3557 3.47975C8.57204 3.47975 7.17642 3.47888 6.06329 3.58472C4.93789 3.69172 4.01638 3.91359 3.20404 4.41139L4.06578 5.81762C4.57543 5.5053 5.21472 5.3221 6.2194 5.22658C7.23635 5.12989 8.5401 5.12902 10.3557 5.12902V3.47975ZM1.83446 13.6502C1.83446 11.8347 1.83533 10.5309 1.93202 9.51395C2.02755 8.50927 2.21075 7.86999 2.52306 7.36034L1.11683 6.4986C0.61903 7.31094 0.397169 8.23244 0.290165 9.35784C0.184328 10.471 0.185198 11.8666 0.185198 13.6502H1.83446ZM3.20404 4.41139C2.35336 4.93269 1.63813 5.64792 1.11683 6.4986L2.52306 7.36034C2.90837 6.73157 3.43702 6.20292 4.06578 5.81762L3.20404 4.41139ZM9.86425 1.83049H15.7672V0.181228H9.86425V1.83049ZM15.7672 1.83049C16.719 1.83049 17.3465 1.83239 17.8118 1.89761C18.2497 1.95899 18.4201 2.06181 18.5311 2.17752L19.7213 1.03585C19.256 0.550731 18.6744 0.353137 18.0407 0.264314C17.4344 0.179328 16.6705 0.181228 15.7672 0.181228V1.83049ZM9.86425 0.181228C8.03885 0.181228 6.60076 0.179999 5.45985 0.308867C4.30139 0.439718 3.35144 0.713061 2.53966 1.32794L3.53547 2.64264C4.01676 2.27809 4.63561 2.06172 5.64496 1.94771C6.67185 1.83172 8.00058 1.83049 9.86425 1.83049V0.181228ZM1.83446 10.2369C1.83446 8.29629 1.8355 6.90438 1.94748 5.8269C2.05805 4.76293 2.26931 4.10294 2.62585 3.59133L1.27275 2.64836C0.689816 3.48483 0.431345 4.46038 0.307049 5.65642C0.184155 6.83897 0.185198 8.33156 0.185198 10.2369H1.83446ZM2.53966 1.32794C2.05223 1.69715 1.62494 2.14299 1.27275 2.64836L2.62585 3.59133C2.88047 3.22597 3.18769 2.90607 3.53547 2.64264L2.53966 1.32794ZM20.5261 4.4436C20.5224 3.69961 20.5066 3.05488 20.4134 2.5204C20.3166 1.96494 20.1252 1.45694 19.7213 1.03585L18.5311 2.17752C18.6337 2.28453 18.7263 2.44608 18.7886 2.80362C18.8546 3.18213 18.8731 3.69386 18.8769 4.45175L20.5261 4.4436ZM0.185198 10.2369C0.185198 11.3097 0.163031 12.2914 0.18548 13.1227L1.83414 13.0782C1.81242 12.2738 1.83446 11.3677 1.83446 10.2369H0.185198ZM22.4502 15.1246H16.0031V16.7738H22.4502V15.1246ZM12.1798 12.9505C12.1798 15.0621 13.8916 16.7738 16.0031 16.7738V15.1246C14.8024 15.1246 13.8291 14.1512 13.8291 12.9505H12.1798ZM13.8291 12.9505C13.8291 11.7499 14.8024 10.7765 16.0031 10.7765V9.12724C13.8916 9.12724 12.1798 10.839 12.1798 12.9505H13.8291ZM19.0018 12.1259H16.0031V13.7752H19.0018V12.1259ZM13.6542 5.12902C15.1766 5.12902 16.3424 5.12937 17.2864 5.18762C18.2295 5.24582 18.8889 5.35927 19.4087 5.55667L19.9942 4.01485C19.2465 3.73087 18.3952 3.60364 17.388 3.54149C16.3817 3.4794 15.1576 3.47975 13.6542 3.47975V5.12902ZM19.4087 5.55667C19.6034 5.6306 19.7796 5.71681 19.944 5.81762L20.8058 4.41139C20.5491 4.2541 20.2799 4.12334 19.9942 4.01485L19.4087 5.55667ZM18.8768 4.44768V4.78576H20.5261V4.44768H18.8768ZM16.0031 10.7765H22.9389V9.12724H16.0031V10.7765ZM23.8246 13.6502C23.8246 12.139 23.825 10.9099 23.7619 9.90044L22.1159 10.0033C22.175 10.9497 22.1754 12.1197 22.1754 13.6502H23.8246ZM23.7619 9.90044C23.6757 8.52074 23.467 7.43522 22.893 6.4986L21.4868 7.36034C21.8484 7.95046 22.035 8.71019 22.1159 10.0033L23.7619 9.90044ZM22.1754 13.6502C22.1754 14.5161 22.1753 15.2689 22.1643 15.9355L23.8133 15.9629C23.8247 15.2798 23.8246 14.5122 23.8246 13.6502H22.1754ZM22.1643 15.9355C22.1285 18.0889 21.9702 19.1511 21.4868 19.9401L22.893 20.8018C23.6409 19.5814 23.7781 18.0826 23.8133 15.9629L22.1643 15.9355ZM22.4502 16.7738H22.9888V15.1246H22.4502V16.7738Z" fill="#4E6F88"/>
</svg>
